<mxfile host="app.diagrams.net" modified="2023-08-21T06:23:42.887Z" agent="Mozilla/5.0 (Windows NT 10.0; Win64; x64) AppleWebKit/537.36 (KHTML, like Gecko) Chrome/115.0.0.0 Safari/537.36" etag="b1YAXUbfYC093hwwMk2G" version="21.6.7" type="github">
  <diagram name="페이지-1" id="6sEnbddWq-lH5KxzZRfk">
    <mxGraphModel dx="989" dy="517" grid="1" gridSize="10" guides="1" tooltips="1" connect="1" arrows="1" fold="1" page="1" pageScale="1" pageWidth="827" pageHeight="1169" math="0" shadow="0">
      <root>
        <mxCell id="0" />
        <mxCell id="1" parent="0" />
        <mxCell id="M_0fyC38t_cplo6kd4ao-2" value="Resource Owner" style="rounded=1;whiteSpace=wrap;html=1;fontFamily=yg-jalnan;fontSource=https%3A%2F%2Fcdn.jsdelivr.net%2Fgh%2Fprojectnoonnu%2Fnoonfonts_four%401.2%2FJalnanOTF00.woff;fontColor=#1e33bd;" vertex="1" parent="1">
          <mxGeometry x="70" y="270" width="100" height="50" as="geometry" />
        </mxCell>
        <mxCell id="M_0fyC38t_cplo6kd4ao-4" value="Client" style="rounded=1;whiteSpace=wrap;html=1;fontFamily=yg-jalnan;fontSource=https%3A%2F%2Fcdn.jsdelivr.net%2Fgh%2Fprojectnoonnu%2Fnoonfonts_four%401.2%2FJalnanOTF00.woff;fontColor=#009641;" vertex="1" parent="1">
          <mxGeometry x="230" y="270" width="100" height="50" as="geometry" />
        </mxCell>
        <mxCell id="M_0fyC38t_cplo6kd4ao-5" value="Authorization&lt;br&gt;Server" style="rounded=1;whiteSpace=wrap;html=1;fontFamily=yg-jalnan;fontSource=https%3A%2F%2Fcdn.jsdelivr.net%2Fgh%2Fprojectnoonnu%2Fnoonfonts_four%401.2%2FJalnanOTF00.woff;fontColor=#ff6674;" vertex="1" parent="1">
          <mxGeometry x="390" y="270" width="100" height="50" as="geometry" />
        </mxCell>
        <mxCell id="M_0fyC38t_cplo6kd4ao-6" value="Resource Server" style="rounded=1;whiteSpace=wrap;html=1;fontFamily=yg-jalnan;fontSource=https%3A%2F%2Fcdn.jsdelivr.net%2Fgh%2Fprojectnoonnu%2Fnoonfonts_four%401.2%2FJalnanOTF00.woff;fontColor=#00CCCC;labelBackgroundColor=none;" vertex="1" parent="1">
          <mxGeometry x="550" y="270" width="100" height="50" as="geometry" />
        </mxCell>
        <mxCell id="M_0fyC38t_cplo6kd4ao-7" value="" style="endArrow=none;html=1;rounded=0;entryX=0.5;entryY=1;entryDx=0;entryDy=0;fontFamily=BinggraeMelona-Bold;fontSource=https%3A%2F%2Fcdn.jsdelivr.net%2Fgh%2Fprojectnoonnu%2Fnoonfonts_twelve%401.0%2FBinggraeMelona-Bold.woff;" edge="1" parent="1" target="M_0fyC38t_cplo6kd4ao-2">
          <mxGeometry width="50" height="50" relative="1" as="geometry">
            <mxPoint x="120" y="880" as="sourcePoint" />
            <mxPoint x="420" y="400" as="targetPoint" />
          </mxGeometry>
        </mxCell>
        <mxCell id="M_0fyC38t_cplo6kd4ao-8" value="" style="endArrow=none;html=1;rounded=0;entryX=0.5;entryY=1;entryDx=0;entryDy=0;fontFamily=BinggraeMelona-Bold;fontSource=https%3A%2F%2Fcdn.jsdelivr.net%2Fgh%2Fprojectnoonnu%2Fnoonfonts_twelve%401.0%2FBinggraeMelona-Bold.woff;" edge="1" parent="1" target="M_0fyC38t_cplo6kd4ao-4">
          <mxGeometry width="50" height="50" relative="1" as="geometry">
            <mxPoint x="280" y="880" as="sourcePoint" />
            <mxPoint x="300.2" y="319.85" as="targetPoint" />
          </mxGeometry>
        </mxCell>
        <mxCell id="M_0fyC38t_cplo6kd4ao-9" value="" style="endArrow=none;html=1;rounded=0;entryX=0.5;entryY=1;entryDx=0;entryDy=0;fontFamily=BinggraeMelona-Bold;fontSource=https%3A%2F%2Fcdn.jsdelivr.net%2Fgh%2Fprojectnoonnu%2Fnoonfonts_twelve%401.0%2FBinggraeMelona-Bold.woff;" edge="1" parent="1" target="M_0fyC38t_cplo6kd4ao-5">
          <mxGeometry width="50" height="50" relative="1" as="geometry">
            <mxPoint x="440" y="880" as="sourcePoint" />
            <mxPoint x="480" y="319.85" as="targetPoint" />
          </mxGeometry>
        </mxCell>
        <mxCell id="M_0fyC38t_cplo6kd4ao-10" value="" style="endArrow=none;html=1;rounded=0;entryX=0.5;entryY=1;entryDx=0;entryDy=0;fontFamily=BinggraeMelona-Bold;fontSource=https%3A%2F%2Fcdn.jsdelivr.net%2Fgh%2Fprojectnoonnu%2Fnoonfonts_twelve%401.0%2FBinggraeMelona-Bold.woff;" edge="1" parent="1" target="M_0fyC38t_cplo6kd4ao-6">
          <mxGeometry width="50" height="50" relative="1" as="geometry">
            <mxPoint x="600" y="880" as="sourcePoint" />
            <mxPoint x="660" y="319.85" as="targetPoint" />
          </mxGeometry>
        </mxCell>
        <mxCell id="M_0fyC38t_cplo6kd4ao-11" value="" style="endArrow=classic;html=1;rounded=0;" edge="1" parent="1">
          <mxGeometry width="50" height="50" relative="1" as="geometry">
            <mxPoint x="120" y="360" as="sourcePoint" />
            <mxPoint x="280" y="360" as="targetPoint" />
          </mxGeometry>
        </mxCell>
        <mxCell id="M_0fyC38t_cplo6kd4ao-12" value="" style="endArrow=classic;html=1;rounded=0;" edge="1" parent="1">
          <mxGeometry width="50" height="50" relative="1" as="geometry">
            <mxPoint x="280" y="400" as="sourcePoint" />
            <mxPoint x="120" y="400" as="targetPoint" />
          </mxGeometry>
        </mxCell>
        <mxCell id="M_0fyC38t_cplo6kd4ao-14" value="" style="endArrow=classic;html=1;rounded=0;" edge="1" parent="1">
          <mxGeometry width="50" height="50" relative="1" as="geometry">
            <mxPoint x="120" y="440" as="sourcePoint" />
            <mxPoint x="440" y="440" as="targetPoint" />
            <Array as="points">
              <mxPoint x="270" y="440" />
              <mxPoint x="280" y="450" />
              <mxPoint x="290" y="440" />
            </Array>
          </mxGeometry>
        </mxCell>
        <mxCell id="M_0fyC38t_cplo6kd4ao-16" value="" style="endArrow=classic;html=1;rounded=0;" edge="1" parent="1">
          <mxGeometry width="50" height="50" relative="1" as="geometry">
            <mxPoint x="440" y="480" as="sourcePoint" />
            <mxPoint x="120" y="480" as="targetPoint" />
            <Array as="points">
              <mxPoint x="290" y="480" />
              <mxPoint x="280" y="490" />
              <mxPoint x="270" y="480" />
            </Array>
          </mxGeometry>
        </mxCell>
        <mxCell id="M_0fyC38t_cplo6kd4ao-17" value="" style="endArrow=classic;html=1;rounded=0;" edge="1" parent="1">
          <mxGeometry width="50" height="50" relative="1" as="geometry">
            <mxPoint x="120" y="520" as="sourcePoint" />
            <mxPoint x="280" y="520" as="targetPoint" />
          </mxGeometry>
        </mxCell>
        <mxCell id="M_0fyC38t_cplo6kd4ao-18" value="" style="endArrow=classic;html=1;rounded=0;" edge="1" parent="1">
          <mxGeometry width="50" height="50" relative="1" as="geometry">
            <mxPoint x="280" y="560" as="sourcePoint" />
            <mxPoint x="440" y="560" as="targetPoint" />
          </mxGeometry>
        </mxCell>
        <mxCell id="M_0fyC38t_cplo6kd4ao-19" value="" style="endArrow=classic;html=1;rounded=0;" edge="1" parent="1">
          <mxGeometry width="50" height="50" relative="1" as="geometry">
            <mxPoint x="280" y="640" as="sourcePoint" />
            <mxPoint x="600" y="640" as="targetPoint" />
          </mxGeometry>
        </mxCell>
        <mxCell id="M_0fyC38t_cplo6kd4ao-20" value="" style="endArrow=classic;html=1;rounded=0;" edge="1" parent="1">
          <mxGeometry width="50" height="50" relative="1" as="geometry">
            <mxPoint x="440" y="600" as="sourcePoint" />
            <mxPoint x="280" y="600" as="targetPoint" />
          </mxGeometry>
        </mxCell>
        <mxCell id="M_0fyC38t_cplo6kd4ao-21" value="" style="endArrow=classic;html=1;rounded=0;" edge="1" parent="1">
          <mxGeometry width="50" height="50" relative="1" as="geometry">
            <mxPoint x="600" y="680" as="sourcePoint" />
            <mxPoint x="280" y="680" as="targetPoint" />
          </mxGeometry>
        </mxCell>
        <mxCell id="M_0fyC38t_cplo6kd4ao-22" value="1. 외부 로그인 사용 요청" style="text;html=1;strokeColor=none;fillColor=none;align=left;verticalAlign=middle;whiteSpace=wrap;rounded=0;fontFamily=BinggraeMelona-Bold;fontSource=https%3A%2F%2Fcdn.jsdelivr.net%2Fgh%2Fprojectnoonnu%2Fnoonfonts_twelve%401.0%2FBinggraeMelona-Bold.woff;fontSize=10;fontColor=#1E33BD;" vertex="1" parent="1">
          <mxGeometry x="120" y="334" width="140" height="30" as="geometry" />
        </mxCell>
        <mxCell id="M_0fyC38t_cplo6kd4ao-23" value="2. Redirect URI, Client ID 전달&amp;nbsp;" style="text;html=1;strokeColor=none;fillColor=none;align=right;verticalAlign=middle;whiteSpace=wrap;rounded=0;fontFamily=BinggraeMelona-Bold;fontSource=https%3A%2F%2Fcdn.jsdelivr.net%2Fgh%2Fprojectnoonnu%2Fnoonfonts_twelve%401.0%2FBinggraeMelona-Bold.woff;fontSize=10;fontColor=#00960A;" vertex="1" parent="1">
          <mxGeometry x="133" y="374" width="150" height="30" as="geometry" />
        </mxCell>
        <mxCell id="M_0fyC38t_cplo6kd4ao-24" value="3. 구글 인증 서버에 사용자가 인증." style="text;html=1;strokeColor=none;fillColor=none;align=left;verticalAlign=middle;whiteSpace=wrap;rounded=0;fontFamily=BinggraeMelona-Bold;fontSource=https%3A%2F%2Fcdn.jsdelivr.net%2Fgh%2Fprojectnoonnu%2Fnoonfonts_twelve%401.0%2FBinggraeMelona-Bold.woff;fontSize=10;fontColor=#1E33BD;" vertex="1" parent="1">
          <mxGeometry x="120" y="414" width="200" height="30" as="geometry" />
        </mxCell>
        <mxCell id="M_0fyC38t_cplo6kd4ao-25" value="&lt;font color=&quot;#ff6666&quot;&gt;4.&amp;nbsp;&lt;/font&gt;" style="text;html=1;strokeColor=none;fillColor=none;align=right;verticalAlign=middle;whiteSpace=wrap;rounded=0;fontFamily=BinggraeMelona-Bold;fontSource=https%3A%2F%2Fcdn.jsdelivr.net%2Fgh%2Fprojectnoonnu%2Fnoonfonts_twelve%401.0%2FBinggraeMelona-Bold.woff;fontSize=10;fontColor=#00960A;" vertex="1" parent="1">
          <mxGeometry x="296" y="456" width="150" height="30" as="geometry" />
        </mxCell>
      </root>
    </mxGraphModel>
  </diagram>
</mxfile>
